<svg version="1.0" xmlns="http://www.w3.org/2000/svg" width="1365.333" height="1365.333" viewBox="0 0 1024 1024">
  <style>
    path {
      fill: white;
    }

    @media (prefers-color-scheme: light) {
      path {
        fill: black;
      }
    }
  </style>
  <g>
    <path
      d="M 467.87 1.337 C 375.885 11.01 295.399 39.591 223.904 87.958 C 175.7 120.643 124.253 170.915 91.97 216.645 C 44.209 284.359 15.463 358.961 3.375 446.756 C -0.31 472.991 -0.31 545.103 3.375 572.657 C 13.4 648.725 36.691 714.827 74.87 775.8 C 109.07 830.616 147.839 873.999 195.895 911.374 C 295.251 988.615 417.161 1027.02 542.757 1020.57 C 615.872 1016.75 673.805 1001.95 737.635 970.734 C 817.237 931.893 882.245 876.491 935.756 802.182 C 985.434 733.295 1016.1 651.217 1024.21 565.476 C 1033.93 462.145 1016.54 367.023 972.019 279.815 C 939.148 215.472 900.673 167.105 844.951 120.203 C 771.097 58.205 677.049 17.313 575.482 3.389 C 563.836 1.777 479.221 0.164 467.87 1.337 Z M 842.296 176.631 C 841.855 180.149 839.201 199.349 836.548 219.576 C 828.441 278.056 826.377 292.86 825.935 293.446 C 825.639 293.739 819.006 289.342 811.045 283.772 C 803.086 278.056 793.651 272.047 790.114 270.288 C 780.237 265.158 765.938 262.813 744.858 262.813 L 725.547 262.813 L 720.83 291.687 C 718.177 307.663 705.204 389.887 691.937 474.604 C 678.669 559.173 664.224 649.605 660.097 675.4 C 649.04 742.822 649.483 750.297 664.812 773.747 C 668.941 779.904 671.889 785.18 671.594 785.473 C 671.299 785.913 635.626 786.499 592.287 787.085 L 513.568 787.964 L 521.676 778.877 C 534.206 764.807 539.365 758.065 543.051 750.883 C 550.569 736.227 547.03 756.013 596.266 444.557 C 603.932 395.75 613.513 335.217 617.494 310.008 C 621.621 284.799 624.864 263.839 624.864 263.546 C 624.864 262.227 594.645 262.813 585.654 264.279 C 572.239 266.477 555.139 272.34 540.251 279.815 C 533.174 283.479 526.982 286.264 526.836 285.971 C 526.541 285.677 532.29 260.468 539.513 229.835 C 546.736 199.203 552.634 173.7 552.634 173.114 C 552.634 172.381 591.255 171.795 638.574 171.501 C 685.745 171.355 751.049 171.062 783.775 170.769 L 843.182 170.476 L 842.296 176.631 Z M 525.952 177.364 C 516.959 186.892 506.789 200.082 503.25 206.971 C 495.143 223.094 491.751 239.215 474.504 347.822 C 468.756 383.732 461.532 429.168 458.288 448.954 C 455.194 468.74 446.791 521.065 439.863 565.476 C 425.859 653.562 420.405 683.315 414.803 699.585 C 393.723 760.996 336.674 796.905 263.704 794.413 C 232.158 793.388 213.437 787.671 189.114 771.989 C 140.468 740.33 123.369 677.892 146.513 616.627 C 161.107 577.933 191.915 556.388 219.482 565.476 C 230.242 568.993 241.593 580.278 245.869 591.857 C 250.733 604.609 249.849 621.17 243.952 632.163 C 230.538 656.932 230.685 656.64 229.947 673.055 C 229.358 691.083 231.275 701.05 237.171 710.284 C 243.509 720.25 251.028 723.768 266.653 723.768 C 277.12 723.768 280.51 723.181 287.291 719.957 C 298.052 714.974 305.718 706.912 311.762 694.454 C 319.87 677.305 323.407 658.839 346.845 508.313 C 354.659 459.067 365.272 391.206 370.579 357.349 C 387.973 246.252 389.301 237.31 389.301 224.706 C 389.301 209.17 387.089 203.013 375.738 186.305 L 367.04 173.554 L 375.443 172.968 C 380.014 172.674 417.014 172.381 457.552 172.235 L 531.111 171.941 L 525.952 177.364 Z"
      style="" />
  </g>
</svg>
