<svg version="1.0" xmlns="http://www.w3.org/2000/svg" width="1365.333" height="1365.333" viewBox="0 0 1024 1024">
  <style>
    path {
      fill: white;
    }

    @media (prefers-color-scheme: light) {
      path {
        fill: black;
      }
    }
  </style>
  <g>

    <path
      d="M480.5 149.6c-62.4 6.6-117 26.1-165.5 59.1-32.7 22.3-67.6 56.6-89.5 87.8-32.4 46.2-51.9 97.1-60.1 157-2.5 17.9-2.5 67.1 0 85.9 6.8 51.9 22.6 97 48.5 138.6 23.2 37.4 49.5 67 82.1 92.5 67.4 52.7 150.1 78.9 235.3 74.5 49.6-2.6 88.9-12.7 132.2-34 54-26.5 98.1-64.3 134.4-115 33.7-47 54.5-103 60-161.5 6.6-70.5-5.2-135.4-35.4-194.9-22.3-43.9-48.4-76.9-86.2-108.9-50.1-42.3-113.9-70.2-182.8-79.7-7.9-1.1-65.3-2.2-73-1.4zm254 119.6c-.3 2.4-2.1 15.5-3.9 29.3-5.5 39.9-6.9 50-7.2 50.4-.2.2-4.7-2.8-10.1-6.6-5.4-3.9-11.8-8-14.2-9.2-6.7-3.5-16.4-5.1-30.7-5.1h-13.1l-3.2 19.7c-1.8 10.9-10.6 67-19.6 124.8-9 57.7-18.8 119.4-21.6 137-7.5 46-7.2 51.1 3.2 67.1 2.8 4.2 4.8 7.8 4.6 8-.2.3-24.4.7-53.8 1.1l-53.4.6 5.5-6.2c8.5-9.6 12-14.2 14.5-19.1 5.1-10 2.7 3.5 36.1-209 5.2-33.3 11.7-74.6 14.4-91.8 2.8-17.2 5-31.5 5-31.7 0-.9-20.5-.5-26.6.5-9.1 1.5-20.7 5.5-30.8 10.6-4.8 2.5-9 4.4-9.1 4.2-.2-.2 3.7-17.4 8.6-38.3 4.9-20.9 8.9-38.3 8.9-38.7 0-.5 26.2-.9 58.3-1.1 32-.1 76.3-.3 98.5-.5l40.3-.2-.6 4.2zm-214.6.5c-6.1 6.5-13 15.5-15.4 20.2-5.5 11-7.8 22-19.5 96.1-3.9 24.5-8.8 55.5-11 69-2.1 13.5-7.8 49.2-12.5 79.5-9.5 60.1-13.2 80.4-17 91.5-14.3 41.9-53 66.4-102.5 64.7-21.4-.7-34.1-4.6-50.6-15.3-33-21.6-44.6-64.2-28.9-106 9.9-26.4 30.8-41.1 49.5-34.9 7.3 2.4 15 10.1 17.9 18 3.3 8.7 2.7 20-1.3 27.5-9.1 16.9-9 16.7-9.5 27.9-.4 12.3.9 19.1 4.9 25.4 4.3 6.8 9.4 9.2 20 9.2 7.1 0 9.4-.4 14-2.6 7.3-3.4 12.5-8.9 16.6-17.4 5.5-11.7 7.9-24.3 23.8-127 5.3-33.6 12.5-79.9 16.1-103 11.8-75.8 12.7-81.9 12.7-90.5 0-10.6-1.5-14.8-9.2-26.2l-5.9-8.7 5.7-.4c3.1-.2 28.2-.4 55.7-.5l49.9-.2-3.5 3.7z" />
  </g>
</svg>
